<svg width="1512" height="982" viewBox="0 0 1512 982" fill="none" xmlns="http://www.w3.org/2000/svg">
<g clip-path="url(#clip0_1_2)">
<rect width="1512" height="982" fill="#14213D"/>
<path d="M-5.45444 945.022C-60.705 775.463 0.77194 687.299 178.976 680.528C357.181 673.756 418.657 585.592 363.407 416.033C308.156 246.475 369.633 158.31 547.838 151.539C726.042 144.768 787.519 56.6034 732.268 -112.955" stroke="#E5E5E5" stroke-opacity="0.11"/>
<path d="M212.032 1105.65C213.403 932.785 300.15 838.296 472.272 822.187C644.395 806.078 731.142 711.589 732.513 538.72C733.884 365.851 820.631 271.361 992.754 255.252C1164.88 239.143 1251.62 144.654 1252.99 -28.2149" stroke="#E5E5E5" stroke-opacity="0.11"/>
<path d="M593.032 1203.65C594.403 1030.79 681.15 936.296 853.272 920.187C1025.39 904.078 1112.14 809.589 1113.51 636.72C1114.88 463.851 1201.63 369.361 1373.75 353.252C1545.88 337.143 1632.62 242.654 1633.99 69.7851" stroke="#E5E5E5" stroke-opacity="0.11"/>
</g>
<defs>
<clipPath id="clip0_1_2">
<rect width="1512" height="982" fill="white"/>
</clipPath>
</defs>
</svg>
