<svg width="6" height="6" viewBox="0 0 6 6" fill="none" xmlns="http://www.w3.org/2000/svg">
<path d="M3 0.000244141C3.41146 0.000244141 3.79948 0.0783691 4.16406 0.234619C4.52865 0.390869 4.84635 0.604411 5.11719 0.875244C5.38802 1.14608 5.60417 1.46639 5.76562 1.83618C5.92708 2.20597 6.00521 2.59399 6 3.00024C6 3.41691 5.92188 3.80493 5.76562 4.16431C5.60938 4.52368 5.39583 4.84139 5.125 5.11743C4.85417 5.39347 4.53385 5.60962 4.16406 5.76587C3.79427 5.92212 3.40625 6.00024 3 6.00024C2.58333 6.00024 2.19531 5.92212 1.83594 5.76587C1.47656 5.60962 1.15885 5.39608 0.882812 5.12524C0.606771 4.85441 0.390625 4.5367 0.234375 4.17212C0.078125 3.80754 0 3.41691 0 3.00024C0 2.58879 0.078125 2.20076 0.234375 1.83618C0.390625 1.4716 0.604167 1.15389 0.875 0.883057C1.14583 0.612223 1.46354 0.396077 1.82812 0.234619C2.19271 0.0731608 2.58333 -0.00496419 3 0.000244141Z" fill="#FCA311"/>
</svg>
