<svg width="26" height="20" viewBox="0 0 26 20" fill="none" xmlns="http://www.w3.org/2000/svg">
<path d="M2.6138 2.865C4.36755 0.96375 7.0213 0 10.5 0H11.75V3.52375L10.745 3.725C9.03255 4.0675 7.8413 4.74125 7.2038 5.73C6.87106 6.26261 6.6824 6.87254 6.6563 7.5H10.5C10.8316 7.5 11.1495 7.6317 11.3839 7.86612C11.6184 8.10054 11.75 8.41848 11.75 8.75V17.5C11.75 18.8787 10.6288 20 9.25005 20H1.75005C1.41853 20 1.10058 19.8683 0.866164 19.6339C0.631743 19.3995 0.500047 19.0815 0.500047 18.75V12.5L0.503797 8.85125C0.492547 8.7125 0.255047 5.425 2.6138 2.865ZM23 20H15.5C15.1685 20 14.8506 19.8683 14.6162 19.6339C14.3817 19.3995 14.25 19.0815 14.25 18.75V12.5L14.2538 8.85125C14.2425 8.7125 14.005 5.425 16.3638 2.865C18.1175 0.96375 20.7713 0 24.25 0H25.5001V3.52375L24.495 3.725C22.7825 4.0675 21.5913 4.74125 20.9538 5.73C20.6211 6.26261 20.4324 6.87254 20.4063 7.5H24.25C24.5816 7.5 24.8995 7.6317 25.1339 7.86612C25.3684 8.10054 25.5001 8.41848 25.5001 8.75V17.5C25.5001 18.8787 24.3788 20 23 20Z" fill="#FCA311"/>
</svg>
