<svg width="50" height="50" viewBox="0 0 50 50" fill="none" xmlns="http://www.w3.org/2000/svg">
<g clip-path="url(#clip0_48_128)">
<path d="M29.6875 23.4375C29.687 24.6811 29.1926 25.8736 28.313 26.7527C27.4333 27.6318 26.2404 28.1254 24.9968 28.125C23.7532 28.1246 22.5607 27.6302 21.6816 26.7505C20.8025 25.8708 20.3089 24.678 20.3093 23.4344C20.3097 22.1908 20.8042 20.9982 21.6838 20.1192C22.5635 19.2401 23.7563 18.7465 25 18.7469C26.2436 18.7473 27.4361 19.2417 28.3152 20.1214C29.1942 21.001 29.6879 22.1939 29.6875 23.4375ZM44.5937 12.5H36.6562C35.2224 12.5 33.8473 13.0696 32.8334 14.0835C31.8195 15.0973 31.25 16.4724 31.25 17.9062V28.125C31.25 28.9538 31.5792 29.7487 32.1652 30.3347C32.7513 30.9208 33.5461 31.25 34.375 31.25V50H46.875V31.25C47.7038 31.25 48.4986 30.9208 49.0847 30.3347C49.6707 29.7487 50 28.9538 50 28.125V17.9062C50 16.4724 49.4304 15.0973 48.4165 14.0835C47.4026 13.0696 46.0275 12.5 44.5937 12.5Z" fill="black"/>
<path d="M46.875 6.25006C46.8938 7.08237 46.7462 7.91005 46.4407 8.68451C46.1353 9.45897 45.6782 10.1646 45.0962 10.76C44.5143 11.3553 43.8193 11.8285 43.0521 12.1515C42.2848 12.4746 41.4607 12.6411 40.6282 12.6414C39.7956 12.6416 38.9715 12.4754 38.204 12.1528C37.4366 11.8301 36.7414 11.3573 36.1591 10.7622C35.5769 10.1671 35.1195 9.46173 34.8136 8.68742C34.5078 7.91311 34.3597 7.0855 34.3781 6.25318C34.4142 4.62018 35.0882 3.0662 36.2557 1.9239C37.4233 0.781603 38.9916 0.141766 40.625 0.141358C42.2584 0.140949 43.8271 0.780002 44.9952 1.92172C46.1633 3.06343 46.8381 4.61707 46.875 6.25006ZM13.3438 15.6251H5.40625C4.69609 15.6253 3.99292 15.7653 3.33689 16.0373C2.68086 16.3093 2.08482 16.7078 1.58281 17.2101C1.08079 17.7124 0.682626 18.3087 0.411048 18.9648C0.139469 19.621 -0.000204965 20.3243 2.2575e-07 21.0344C0.000205416 21.7446 0.140286 22.4478 0.412243 23.1038C0.684201 23.7598 1.08271 24.3559 1.58502 24.8579C2.08732 25.3599 2.68359 25.7581 3.33978 26.0296C3.99596 26.3012 4.69921 26.4409 5.40938 26.4407C6.84362 26.4403 8.21895 25.8701 9.23282 24.8557C10.2467 23.8412 10.816 22.4655 10.8156 21.0313C10.8152 19.5971 10.2451 18.2217 9.23061 17.2079C8.21615 16.194 6.84049 15.6246 5.40625 15.6251C3.97242 15.6251 2.59668 16.1962 1.58281 17.2101C0.568939 18.2239 2.2575e-07 19.6006 2.2575e-07 21.0344L3.39711e-07 28.1251C3.39711e-07 28.9539 0.329241 29.7487 0.915292 30.3348C1.50134 30.9208 2.2962 31.2501 3.125 31.2501L3.39711e-07 40.6251H3.125V50.0001H15.625V40.6251H18.75L15.625 31.2501C16.4538 31.2501 17.2487 30.9208 17.8347 30.3348C18.4208 29.7487 18.75 28.9539 18.75 28.1251V21.0313C18.75 20.3214 18.6102 19.6183 18.3385 18.9624C18.0668 18.3065 17.6686 17.7105 17.1665 17.2085C16.6645 16.7065 16.0685 16.3083 15.4126 16.0366C14.7567 15.7649 14.0537 15.6251 13.3438 15.6251Z" fill="black"/>
<path d="M15.625 9.37506C15.6438 10.2074 15.4962 11.035 15.1907 11.8095C14.8852 12.584 14.4281 13.2896 13.8462 13.885C13.2643 14.4803 12.5693 14.9535 11.802 15.2765C11.0348 15.5996 10.2107 15.7661 9.37815 15.7664C8.54563 15.7666 7.72145 15.6004 6.95402 15.2778C6.18658 14.9551 5.49134 14.4823 4.90913 13.8872C4.32692 13.2921 3.86946 12.5867 3.56362 11.8124C3.25777 11.0381 3.10971 10.2105 3.12811 9.37818C3.16423 7.74518 3.83819 6.1912 5.00574 5.0489C6.17328 3.9066 7.74162 3.26677 9.37502 3.26636C11.0084 3.26595 12.5771 3.905 13.7452 5.04672C14.9133 6.18843 15.5881 7.74207 15.625 9.37506ZM21.875 40.6251V50.0001H28.125V40.6251C28.9538 40.6251 29.7486 40.2958 30.3347 39.7098C30.9207 39.1237 31.25 38.3289 31.25 37.5001V32.6876C31.25 31.4775 30.7693 30.317 29.9137 29.4614C29.058 28.6057 27.8975 28.1251 26.6875 28.1251H23.3125C22.1024 28.1251 20.9419 28.6057 20.0863 29.4614C19.2307 30.317 18.75 31.4775 18.75 32.6876V37.5001C18.75 38.3289 19.0792 39.1237 19.6653 39.7098C20.2513 40.2958 21.0462 40.6251 21.875 40.6251Z" fill="black"/>
</g>
<defs>
<clipPath id="clip0_48_128">
<rect width="50" height="50" fill="white"/>
</clipPath>
</defs>
</svg>
