<svg width="50" height="50" viewBox="0 0 50 50" fill="none" xmlns="http://www.w3.org/2000/svg">
<g clip-path="url(#clip0_50_339)">
<path fill-rule="evenodd" clip-rule="evenodd" d="M19.2321 18.7215L24.2464 14.1858C25.3996 13.1447 26.7655 12.3668 28.2492 11.9061C29.733 11.4455 31.2992 11.313 32.8393 11.5179L39.475 12.3965L48.6821 7.42148C48.8182 7.34785 48.971 7.31082 49.1257 7.31404C49.2803 7.31725 49.4315 7.36058 49.5644 7.4398C49.6972 7.51902 49.8073 7.63139 49.8836 7.76592C49.96 7.90045 50.0001 8.05251 50 8.2072V25.1286C49.9999 25.6964 49.8644 26.256 49.6048 26.761C49.3452 27.2659 48.9689 27.7017 48.5071 28.0322L42.3071 32.4643L35.5929 26.8358C36.9025 26.3649 38.0839 25.5944 39.0429 24.5858C39.2466 24.3747 39.4069 24.1256 39.5144 23.8526C39.6219 23.5796 39.6746 23.2882 39.6694 22.9948C39.6643 22.7015 39.6014 22.4121 39.4844 22.143C39.3674 21.874 39.1986 21.6306 38.9875 21.4268C38.7765 21.2231 38.5273 21.0628 38.2544 20.9553C37.9814 20.8478 37.6899 20.7951 37.3966 20.8003C37.1032 20.8054 36.8138 20.8683 36.5448 20.9853C36.2757 21.1023 36.0324 21.2711 35.8286 21.4822C35.1714 22.1751 34.3952 22.6108 33.5 22.7893C32.7179 22.9429 31.7214 22.9179 30.4679 22.5322L28.875 21.1929L24.4286 24.7965C23.6174 25.4388 22.5889 25.7419 21.5591 25.642C20.5293 25.5421 19.5782 25.047 18.9056 24.2607C18.2331 23.4745 17.8913 22.4582 17.9522 21.4253C18.0131 20.3924 18.4719 19.4233 19.2321 18.7215ZM16.2393 15.4072L19.8393 12.1536C18.2909 11.7355 16.6702 11.6587 15.0893 11.9286L8.53572 13.0643L1.34286 9.19291C1.20398 9.11804 1.04803 9.08054 0.8903 9.08408C0.732566 9.08762 0.578457 9.13207 0.443073 9.21308C0.307688 9.2941 0.195673 9.4089 0.118002 9.54623C0.0403316 9.68356 -0.000329925 9.83871 2.01617e-06 9.99648V25.1251C2.01617e-06 26.3322 0.596431 27.4608 1.59286 28.1393L21.075 41.4215C22.306 42.2622 23.7652 42.7051 25.2558 42.6904C26.7463 42.6757 28.1966 42.2041 29.4107 41.3393L38.3607 34.9858L28.825 26.9858L27.2357 28.2643C25.521 29.6424 23.3372 30.2988 21.1468 30.0944C18.9565 29.89 16.9318 28.8409 15.5017 27.1693C14.0716 25.4978 13.3484 23.3351 13.4854 21.1395C13.6224 18.944 14.6124 16.888 16.2393 15.4072Z" fill="black"/>
</g>
<defs>
<clipPath id="clip0_50_339">
<rect width="50" height="50" fill="white"/>
</clipPath>
</defs>
</svg>
