<svg width="50" height="50" viewBox="0 0 50 50" fill="none" xmlns="http://www.w3.org/2000/svg">
<g clip-path="url(#clip0_50_337)">
<path d="M49.4034 42.7273C49.4034 43.7311 49.0531 44.5834 48.3523 45.2841L45.3125 48.3523C44.5739 49.0531 43.7121 49.4034 42.7273 49.4034C41.7235 49.4034 40.8712 49.0531 40.1705 48.3523L29.858 38.0114C29.1383 37.3296 28.7784 36.4773 28.7784 35.4546C28.7784 34.4508 29.1856 33.5417 30 32.7273L22.7273 25.4546L19.1477 29.0341C18.8826 29.2993 18.5606 29.4318 18.1818 29.4318C17.8031 29.4318 17.4811 29.2993 17.2159 29.0341C17.2538 29.072 17.3722 29.1856 17.571 29.375C17.7699 29.5644 17.8883 29.6875 17.9262 29.7443C17.964 29.8012 18.0587 29.9101 18.2102 30.071C18.3618 30.232 18.4565 30.3599 18.4943 30.4546C18.5322 30.5493 18.589 30.6771 18.6648 30.8381C18.7406 30.9991 18.7926 31.1553 18.821 31.3068C18.8495 31.4584 18.8637 31.6288 18.8637 31.8182C18.8637 32.5379 18.5985 33.1818 18.0682 33.75C18.0114 33.8068 17.8551 33.9773 17.5995 34.2614C17.3438 34.5455 17.1638 34.7396 17.0597 34.8438C16.9555 34.9479 16.7803 35.1042 16.5341 35.3125C16.2879 35.5209 16.0796 35.6676 15.9091 35.7529C15.7387 35.8381 15.5303 35.9233 15.2841 36.0085C15.0379 36.0938 14.7917 36.1364 14.5455 36.1364C13.7879 36.1364 13.144 35.8712 12.6137 35.3409L1.02275 23.75C0.492446 23.2197 0.227295 22.5758 0.227295 21.8182C0.227295 21.572 0.269909 21.3258 0.355136 21.0796C0.440363 20.8334 0.52559 20.625 0.610818 20.4546C0.696045 20.2841 0.842825 20.0758 1.05116 19.8296C1.25949 19.5834 1.41574 19.4082 1.51991 19.304C1.62408 19.1998 1.8182 19.0199 2.10229 18.7642C2.38639 18.5085 2.55684 18.3523 2.61366 18.2955C3.18184 17.7652 3.82578 17.5 4.54548 17.5C4.73487 17.5 4.90532 17.5142 5.05684 17.5426C5.20836 17.571 5.36461 17.6231 5.52559 17.6989C5.68657 17.7746 5.81442 17.8315 5.90911 17.8693C6.00381 17.9072 6.13165 18.0019 6.29264 18.1534C6.45362 18.3049 6.56252 18.3996 6.61934 18.4375C6.67616 18.4754 6.79926 18.5938 6.98866 18.7926C7.17805 18.9915 7.29169 19.1099 7.32957 19.1477C7.06442 18.8826 6.93184 18.5606 6.93184 18.1818C6.93184 17.8031 7.06442 17.4811 7.32957 17.2159L17.2159 7.32957C17.4811 7.06442 17.8031 6.93184 18.1818 6.93184C18.5606 6.93184 18.8826 7.06442 19.1477 7.32957C19.1099 7.29169 18.9915 7.17805 18.7926 6.98866C18.5938 6.79926 18.4754 6.67616 18.4375 6.61934C18.3996 6.56252 18.3049 6.45362 18.1534 6.29264C18.0019 6.13165 17.9072 6.00381 17.8693 5.90911C17.8315 5.81442 17.7746 5.68657 17.6989 5.52559C17.6231 5.36461 17.571 5.20836 17.5426 5.05684C17.5142 4.90532 17.5 4.73487 17.5 4.54548C17.5 3.82578 17.7652 3.18184 18.2955 2.61366C18.3523 2.55684 18.5085 2.38639 18.7642 2.10229C19.0199 1.8182 19.1998 1.62408 19.304 1.51991C19.4082 1.41574 19.5834 1.25949 19.8296 1.05116C20.0758 0.842825 20.2841 0.696045 20.4546 0.610818C20.625 0.52559 20.8334 0.440363 21.0796 0.355136C21.3258 0.269909 21.572 0.227295 21.8182 0.227295C22.5758 0.227295 23.2197 0.492446 23.75 1.02275L35.3409 12.6137C35.8712 13.144 36.1364 13.7879 36.1364 14.5455C36.1364 14.7917 36.0938 15.0379 36.0085 15.2841C35.9233 15.5303 35.8381 15.7387 35.7529 15.9091C35.6676 16.0796 35.5209 16.2879 35.3125 16.5341C35.1042 16.7803 34.9479 16.9555 34.8438 17.0597C34.7396 17.1638 34.5455 17.3438 34.2614 17.5995C33.9773 17.8551 33.8068 18.0114 33.75 18.0682C33.1818 18.5985 32.5379 18.8637 31.8182 18.8637C31.6288 18.8637 31.4584 18.8495 31.3068 18.821C31.1553 18.7926 30.9991 18.7406 30.8381 18.6648C30.6771 18.589 30.5493 18.5322 30.4546 18.4943C30.3599 18.4565 30.232 18.3618 30.071 18.2102C29.9101 18.0587 29.8012 17.964 29.7443 17.9262C29.6875 17.8883 29.5644 17.7699 29.375 17.571C29.1856 17.3722 29.072 17.2538 29.0341 17.2159C29.2993 17.4811 29.4318 17.8031 29.4318 18.1818C29.4318 18.5606 29.2993 18.8826 29.0341 19.1477L25.4546 22.7273L32.7273 30C33.5417 29.1856 34.4508 28.7784 35.4546 28.7784C36.4394 28.7784 37.3012 29.1288 38.0398 29.8296L48.3523 40.1421C49.0531 40.8807 49.4034 41.7424 49.4034 42.7273Z" fill="black"/>
</g>
<defs>
<clipPath id="clip0_50_337">
<rect width="50" height="50" fill="white"/>
</clipPath>
</defs>
</svg>
