<svg width="50" height="50" viewBox="0 0 50 50" fill="none" xmlns="http://www.w3.org/2000/svg">
<path d="M33.3334 22.9166C36.7917 22.9166 39.5625 20.125 39.5625 16.6666C39.5625 13.2083 36.7917 10.4166 33.3334 10.4166C29.875 10.4166 27.0834 13.2083 27.0834 16.6666C27.0834 20.125 29.875 22.9166 33.3334 22.9166ZM16.6667 22.9166C20.125 22.9166 22.8959 20.125 22.8959 16.6666C22.8959 13.2083 20.125 10.4166 16.6667 10.4166C13.2084 10.4166 10.4167 13.2083 10.4167 16.6666C10.4167 20.125 13.2084 22.9166 16.6667 22.9166ZM16.6667 27.0833C11.8125 27.0833 2.08337 29.5208 2.08337 34.375V39.5833H31.25V34.375C31.25 29.5208 21.5209 27.0833 16.6667 27.0833ZM33.3334 27.0833C32.7292 27.0833 32.0417 27.125 31.3125 27.1875C33.7292 28.9375 35.4167 31.2916 35.4167 34.375V39.5833H47.9167V34.375C47.9167 29.5208 38.1875 27.0833 33.3334 27.0833Z" fill="black"/>
</svg>
