<svg width="8" height="8" viewBox="0 0 8 8" fill="none" xmlns="http://www.w3.org/2000/svg">
<path d="M4 0.250061C4.51432 0.250061 4.99935 0.347717 5.45508 0.54303C5.91081 0.738342 6.30794 1.00527 6.64648 1.34381C6.98503 1.68235 7.25521 2.08274 7.45703 2.54498C7.65885 3.00722 7.75651 3.49225 7.75 4.00006C7.75 4.52089 7.65234 5.00592 7.45703 5.45514C7.26172 5.90436 6.99479 6.30149 6.65625 6.64655C6.31771 6.9916 5.91732 7.26178 5.45508 7.45709C4.99284 7.6524 4.50781 7.75006 4 7.75006C3.47917 7.75006 2.99414 7.6524 2.54492 7.45709C2.0957 7.26178 1.69857 6.99485 1.35352 6.65631C1.00846 6.31777 0.738281 5.92063 0.542969 5.4649C0.347656 5.00918 0.25 4.52089 0.25 4.00006C0.25 3.48574 0.347656 3.00071 0.542969 2.54498C0.738281 2.08925 1.00521 1.69212 1.34375 1.35358C1.68229 1.01503 2.07943 0.744853 2.53516 0.54303C2.99089 0.341207 3.47917 0.243551 4 0.250061Z" fill="black"/>
</svg>
